<svg width="12" height="12" viewBox="0 0 12 12" fill="none" xmlns="http://www.w3.org/2000/svg">
<path id="Vector" d="M5 6.99996V10.2275C5 10.3601 4.94732 10.4872 4.85355 10.581C4.75979 10.6748 4.63261 10.7275 4.5 10.7275C4.47003 10.7273 4.44014 10.7245 4.41062 10.7193L0.410625 9.99183C0.295417 9.9709 0.19121 9.9102 0.116169 9.82031C0.0411293 9.73042 1.69232e-05 9.61705 0 9.49996V6.99996C0 6.86735 0.0526785 6.74017 0.146447 6.6464C0.240215 6.55263 0.367392 6.49996 0.5 6.49996H4.5C4.63261 6.49996 4.75979 6.55263 4.85355 6.6464C4.94732 6.74017 5 6.86735 5 6.99996ZM4.82062 1.38871C4.76438 1.34174 4.6985 1.30771 4.62765 1.28903C4.5568 1.27035 4.48271 1.26746 4.41062 1.28058L0.410625 2.00808C0.295417 2.02901 0.19121 2.08971 0.116169 2.1796C0.0411293 2.26949 1.69232e-05 2.38286 0 2.49996V4.99996C0 5.13256 0.0526785 5.25974 0.146447 5.35351C0.240215 5.44728 0.367392 5.49996 0.5 5.49996H4.5C4.63261 5.49996 4.75979 5.44728 4.85355 5.35351C4.94732 5.25974 5 5.13256 5 4.99996V1.77246C5.00001 1.69926 4.98395 1.62696 4.95296 1.56065C4.92197 1.49434 4.87679 1.43564 4.82062 1.38871ZM11.5 6.49996H6.5C6.36739 6.49996 6.24021 6.55263 6.14645 6.6464C6.05268 6.74017 6 6.86735 6 6.99996V10.5906C5.99987 10.7078 6.04092 10.8213 6.11597 10.9113C6.19102 11.0013 6.29531 11.0621 6.41063 11.0831L11.4106 11.9918C11.4401 11.9973 11.47 12.0001 11.5 12C11.6326 12 11.7598 11.9473 11.8536 11.8535C11.9473 11.7597 12 11.6326 12 11.5V6.99996C12 6.86735 11.9473 6.74017 11.8536 6.6464C11.7598 6.55263 11.6326 6.49996 11.5 6.49996ZM11.8206 0.116206C11.7644 0.0692423 11.6985 0.0352141 11.6277 0.0165296C11.5568 -0.00215499 11.4827 -0.00503923 11.4106 0.00808072L6.41063 0.917456C6.29542 0.938386 6.19121 0.999087 6.11617 1.08897C6.04113 1.17886 6.00002 1.29224 6 1.40933V4.99996C6 5.13256 6.05268 5.25974 6.14645 5.35351C6.24021 5.44728 6.36739 5.49996 6.5 5.49996H11.5C11.6326 5.49996 11.7598 5.44728 11.8536 5.35351C11.9473 5.25974 12 5.13256 12 4.99996V0.499956C12 0.42676 11.984 0.354455 11.953 0.288146C11.922 0.221837 11.8768 0.163142 11.8206 0.116206Z" fill="#F5F5F5"/>
</svg>
