<svg width="16" height="16" viewBox="0 0 16 16" fill="none" xmlns="http://www.w3.org/2000/svg">
<path fill-rule="evenodd" clip-rule="evenodd" d="M1.64129 1.64208C1.796 1.48675 2.00523 1.4 2.22282 1.4H9.07988C9.29746 1.4 9.50669 1.48675 9.6614 1.64208C9.8162 1.7975 9.90367 2.00888 9.90367 2.22987V2.99481C9.90367 3.38141 10.2171 3.69481 10.6037 3.69481C10.9903 3.69481 11.3037 3.38141 11.3037 2.99481V2.22987C11.3037 1.63937 11.0701 1.07249 10.6533 0.654101C10.2365 0.235612 9.67057 0 9.07988 0H2.22282C1.63213 0 1.0662 0.235612 0.649372 0.654101C0.232641 1.0725 -0.000976562 1.63937 -0.000976562 2.22987V9.11429C-0.000976562 9.70479 0.232641 10.2717 0.649372 10.6901C1.0662 11.1086 1.63213 11.3442 2.22282 11.3442H2.98471C3.37131 11.3442 3.68471 11.0308 3.68471 10.6442C3.68471 10.2576 3.37131 9.94417 2.98471 9.94417H2.22282C2.00523 9.94417 1.796 9.85741 1.64129 9.70209C1.48649 9.54667 1.39902 9.33529 1.39902 9.11429V2.22987C1.39902 2.00888 1.48649 1.7975 1.64129 1.64208ZM5.97324 6.81898C5.97324 6.35803 6.34469 5.98911 6.79703 5.98911H13.6541C14.1064 5.98911 14.4779 6.35803 14.4779 6.81898V13.7034C14.4779 14.1644 14.1064 14.5333 13.6541 14.5333H6.79703C6.34469 14.5333 5.97324 14.1644 5.97324 13.7034V6.81898ZM6.79703 4.58911C5.56624 4.58911 4.57324 5.59009 4.57324 6.81898V13.7034C4.57324 14.9323 5.56624 15.9333 6.79703 15.9333H13.6541C14.8849 15.9333 15.8779 14.9323 15.8779 13.7034V6.81898C15.8779 5.59009 14.8849 4.58911 13.6541 4.58911H6.79703Z"/>
</svg>
