<svg width="184" height="98" viewBox="0 0 184 98" fill="none" xmlns="http://www.w3.org/2000/svg">
<path d="M175.625 27.9328C176.523 31.5572 175.164 35.6495 171.751 39.9931C168.342 44.3302 162.941 48.8423 155.935 53.2598C141.926 62.0918 121.597 70.4842 98.2694 76.326C74.9419 82.1678 53.0727 84.3429 36.5803 83.1492C28.3312 82.5521 21.4564 81.1142 16.423 78.8911C11.3822 76.6647 8.2725 73.6915 7.37464 70.0671C6.47677 66.4427 7.83613 62.3504 11.2494 58.0068C14.6576 53.6697 20.0585 49.1577 27.0653 44.7401C41.0741 35.9081 61.4031 27.5157 84.7306 21.6739C108.058 15.8321 129.927 13.657 146.42 14.8507C154.669 15.4478 161.544 16.8857 166.577 19.1088C171.618 21.3352 174.727 24.3084 175.625 27.9328Z" stroke="#00C891"/>
</svg>
