<svg width="397" height="99" viewBox="0 0 397 99" fill="none" xmlns="http://www.w3.org/2000/svg">
<path d="M39 3.5L21 28.5C13 39 27 68 2 83.5C2 83.5 40.8909 102.838 57.5 90.5C75 77.5 100.5 76 142.5 98C162.5 90 212.5 76 258 98C311.5 61.5 360.5 98 360.5 98L360.686 97.3884C365.912 80.1709 379.027 66.4721 396 60.5C396 60.5 351.5 28.5 366.5 1C345 7 293 23 293 23C293 23 247.5 32 235 3.5C213.5 26 173 19.5 173 19.5C173 19.5 128.167 12.5 126 5.5C108 23 78 26 78 26C78 26 48 26 39 3.5Z" stroke="#AA41F8"/>
</svg>
