<svg width="20" height="20" viewBox="0 0 20 20" fill="none" xmlns="http://www.w3.org/2000/svg">
<path d="M19.998 4.69389C19.2486 5.01617 18.4992 5.21741 17.7502 5.29827C18.5961 4.79074 19.1683 4.0737 19.4664 3.14722C18.6927 3.60636 17.867 3.92046 16.9889 4.0897C16.2154 3.26798 15.2649 2.85693 14.1367 2.85693C13.0573 2.85693 12.1369 3.2375 11.3753 3.99893C10.6141 4.76027 10.2334 5.68065 10.2334 6.76017C10.2334 7.05017 10.2656 7.34836 10.3301 7.65455C8.73482 7.57398 7.23834 7.17312 5.84043 6.45208C4.44253 5.73093 3.25624 4.77017 2.28142 3.56979C1.92692 4.17389 1.74961 4.83065 1.74961 5.5396C1.74961 6.20827 1.90669 6.82874 2.22106 7.40074C2.53522 7.97274 2.95824 8.43589 3.49005 8.79046C2.86148 8.76627 2.27341 8.60103 1.72565 8.29484V8.34322C1.72565 9.28589 2.02174 10.1135 2.61382 10.8267C3.20596 11.5399 3.95329 11.9887 4.85558 12.1742C4.5171 12.2626 4.17463 12.307 3.82834 12.307C3.60272 12.307 3.35691 12.2869 3.0911 12.2469C3.34082 13.0283 3.80015 13.6706 4.46872 14.1743C5.13748 14.6779 5.89482 14.9374 6.74072 14.9539C5.32282 16.0655 3.70758 16.6213 1.8948 16.6213C1.5483 16.6213 1.23418 16.6055 0.952148 16.5731C2.76493 17.7412 4.76291 18.3252 6.94634 18.3252C8.33205 18.3252 9.6332 18.106 10.8494 17.6667C12.0661 17.2279 13.1053 16.6396 13.9675 15.9023C14.8294 15.1651 15.5727 14.3171 16.1971 13.3585C16.8214 12.3997 17.2865 11.3987 17.5929 10.3555C17.8989 9.31198 18.0521 8.26684 18.0521 7.21931C18.0521 6.9937 18.0481 6.82455 18.04 6.71179C18.8055 6.15608 19.4581 5.48322 19.998 4.69389Z" fill="currentColor"/>
</svg>
