<svg width="136" height="40" viewBox="0 0 136 40" fill="none" xmlns="http://www.w3.org/2000/svg">
<path fill-rule="evenodd" clip-rule="evenodd" d="M95.3492 5.70238C95.8136 5.84125 96.2007 6.04956 96.5104 6.3273L99.6326 1.84872C99.2542 1.5189 98.7811 1.21512 98.2134 0.937378C97.7317 0.694354 97.1382 0.477367 96.4329 0.286419C95.7276 0.0954717 94.8933 0 93.93 0C92.6914 0 91.5302 0.243022 90.4465 0.72907C89.3799 1.19776 88.451 1.84872 87.6596 2.68194C86.8855 3.49781 86.2748 4.46123 85.8276 5.57219C85.3803 6.68316 85.1567 7.86356 85.1567 9.1134C85.1567 10.398 85.3889 11.5957 85.8534 12.7067C86.335 13.8176 86.9801 14.7811 87.7887 15.5969C88.6144 16.4128 89.5777 17.0551 90.6787 17.5238C91.7797 17.9925 92.9494 18.2268 94.188 18.2268C95.0309 18.2268 95.8481 18.114 96.6394 17.8883C97.4307 17.6626 98.1618 17.3415 98.8327 16.9249C99.5208 16.5083 100.14 16.0135 100.691 15.4407C101.241 14.8505 101.714 14.1995 102.11 13.4878V7.70733H93.6911L95.4782 11.3527H97.0264C96.6824 11.7867 96.2695 12.1338 95.7878 12.3942C95.3062 12.6372 94.7729 12.7588 94.188 12.7588C93.6891 12.7588 93.2161 12.672 92.7688 12.4984C92.3387 12.3074 91.9603 12.0557 91.6334 11.7433C91.3066 11.4134 91.0485 11.0229 90.8593 10.5715C90.6701 10.1202 90.5755 9.63417 90.5755 9.1134C90.5755 8.59264 90.6615 8.10659 90.8335 7.65526C91.0055 7.20393 91.2378 6.82203 91.5302 6.50957C91.8399 6.17975 92.2011 5.92805 92.614 5.75446C93.0268 5.56351 93.4827 5.46804 93.9816 5.46804C94.4288 5.46804 94.8847 5.54615 95.3492 5.70238ZM50.5146 0.432986H55.0561L59.546 7.09879L64.0101 0.432986H68.5515V17.8005H63.0553V9.69146L59.546 14.8991L56.0109 9.69146V17.8005H50.5146V0.432986ZM75.938 0.432986H80.0666L86.595 17.8005H81.1762L80.6085 16.2382H75.3961L74.8285 17.8005H69.4097L75.938 0.432986ZM103.536 0.416611H109.368V17.7841H103.536V0.416611ZM51.2372 27.1366C50.7555 28.2476 50.5147 29.4974 50.5147 30.8861C50.5147 32.2401 50.7469 33.4813 51.2114 34.6096C51.6758 35.7206 52.3209 36.6753 53.1467 37.4738C53.9724 38.2723 54.9529 38.8972 56.0883 39.3486C57.2237 39.7826 58.4622 39.9995 59.804 39.9995C60.8018 39.9995 61.6877 39.8954 62.4618 39.6871C63.236 39.4788 63.8983 39.2531 64.4487 39.0101C65.0852 38.715 65.6357 38.3765 66.1002 37.9946L63.3908 33.1775C63.1327 33.4379 62.8317 33.6636 62.4876 33.8545C62.1952 34.0281 61.834 34.1843 61.4039 34.3232C60.9738 34.4621 60.4836 34.5315 59.9331 34.5315C59.3826 34.5315 58.8751 34.436 58.4106 34.2451C57.9462 34.0541 57.5419 33.7937 57.1979 33.4639C56.8538 33.1341 56.5786 32.7522 56.3721 32.3182C56.1829 31.8669 56.0883 31.3895 56.0883 30.8861C56.0883 30.3827 56.1829 29.914 56.3721 29.4801C56.5614 29.0287 56.8194 28.6382 57.1463 28.3083C57.4903 27.9785 57.886 27.7181 58.3332 27.5272C58.7805 27.3362 59.2708 27.2408 59.804 27.2408C60.3201 27.2408 60.776 27.3102 61.1717 27.4491C61.5845 27.5706 61.9372 27.7008 62.2296 27.8397C62.5565 28.0306 62.8575 28.2302 63.1327 28.4385L65.8421 23.6215C65.3777 23.2916 64.8272 22.9879 64.1907 22.7101C63.6402 22.4671 62.9779 22.2501 62.2038 22.0592C61.4469 21.8682 60.5782 21.7727 59.5976 21.7727C58.359 21.7727 57.1893 21.9897 56.0883 22.4237C54.9873 22.8403 54.024 23.4479 53.1983 24.2464C52.3725 25.0449 51.7189 26.0083 51.2372 27.1366ZM66.7519 22.1893H72.3256V26.1992L75.5768 22.1893H82.3116L76.2477 30.131L82.6213 39.5569H75.9897L72.3256 34.193V39.5569H66.7519V22.1893ZM89.8661 22.1893H83.1313V39.5569H90.15C91.1133 39.5569 91.982 39.4354 92.7561 39.1923C93.5475 38.932 94.2098 38.5674 94.743 38.0987C95.2935 37.6127 95.715 37.0312 96.0074 36.3542C96.2999 35.6772 96.4461 34.9221 96.4461 34.0888C96.4461 33.3598 96.3343 32.7435 96.1106 32.2401C95.9042 31.7367 95.672 31.3201 95.4139 30.9903C95.1043 30.6084 94.7602 30.2959 94.3818 30.0529C94.6226 29.8446 94.8377 29.5842 95.0269 29.2718C95.1817 29.0114 95.3279 28.6902 95.4655 28.3083C95.6032 27.9091 95.672 27.4317 95.672 26.8762C95.672 26.0951 95.5258 25.4181 95.2333 24.8453C94.9581 24.2551 94.5624 23.769 94.0463 23.3871C93.5475 22.9879 92.9368 22.6928 92.2143 22.5018C91.509 22.2935 90.7262 22.1893 89.8661 22.1893ZM102.377 22.1893H106.505L113.034 39.5569H107.615L107.047 37.9946H101.835L101.267 39.5569H95.8484L102.377 22.1893ZM114.784 34.4534C114.372 34.3839 113.976 34.2885 113.597 34.167V39.3746C114.01 39.4961 114.466 39.6003 114.965 39.6871C115.395 39.7739 115.885 39.8433 116.436 39.8954C117.003 39.9648 117.614 39.9995 118.268 39.9995C119.352 39.9995 120.289 39.852 121.08 39.5569C121.872 39.2791 122.517 38.8973 123.016 38.4112C123.532 37.9078 123.91 37.3263 124.151 36.6666C124.392 35.9896 124.512 35.2692 124.512 34.5055C124.512 33.7764 124.392 33.1167 124.151 32.5265C123.927 31.9363 123.644 31.4069 123.3 30.9382C122.973 30.4695 122.603 30.0529 122.19 29.6884C121.794 29.3238 121.425 29.0027 121.08 28.725C120.909 28.579 120.717 28.4434 120.538 28.3174L120.538 28.3173C120.377 28.2035 120.226 28.0975 120.112 27.9987C120.02 27.9129 119.94 27.8562 119.848 27.7917L119.848 27.7916C119.718 27.6996 119.565 27.5918 119.324 27.3612C119.201 27.2444 119.537 26.9612 119.64 26.8744C119.744 26.7876 119.974 26.6912 120.112 26.6565L120.143 26.6484C120.162 26.6434 120.18 26.6383 120.199 26.6333L120.199 26.6332L120.199 26.6331C120.301 26.6049 120.397 26.5784 120.519 26.5784C120.561 26.5736 120.597 26.5686 120.632 26.5639C120.724 26.5512 120.804 26.5402 120.951 26.5402C121.055 26.5402 121.123 26.5365 121.181 26.5332C121.276 26.528 121.345 26.5241 121.505 26.5402C121.763 26.5663 122.005 26.62 122.139 26.6565C122.376 26.721 122.599 26.8308 122.706 26.9804V22.1112C122.345 22.0592 121.975 22.0071 121.597 21.955C121.27 21.9203 120.9 21.8856 120.487 21.8508C120.074 21.7988 119.661 21.7727 119.248 21.7727C118.457 21.7727 117.709 21.8856 117.003 22.1112C116.315 22.3195 115.713 22.632 115.197 23.0486C114.681 23.4652 114.277 23.986 113.984 24.6109C113.692 25.2358 113.546 25.9562 113.546 26.7721C113.546 27.5012 113.666 28.1521 113.907 28.725C114.148 29.2804 114.449 29.7838 114.81 30.2352C115.189 30.6865 115.584 31.0858 115.997 31.4329C116.427 31.7801 116.823 32.1013 117.184 32.3964C117.563 32.6741 117.872 32.9345 118.113 33.1775C118.354 33.4032 118.474 33.6288 118.474 33.8545C118.474 34.4447 118.079 34.7398 117.287 34.7398C116.84 34.7398 116.393 34.7138 115.946 34.6617C115.515 34.6096 115.128 34.5402 114.784 34.4534ZM125.679 22.1893H135.82V26.3659H131.175V28.9523H135.742V32.7156H131.175V35.3165H136V39.5569H125.679V22.1893ZM77.8131 7.86385L79.9274 12.4121H75.7084L77.8131 7.86385ZM106.521 34.3842L104.406 29.836L102.302 34.3842H106.521ZM90.5452 34.161C90.5452 35.6872 89.1077 36.0365 87.3345 36.0365L87.3345 34.161L87.3345 32.2855C89.1077 32.2855 90.5452 32.6348 90.5452 34.161ZM87.3345 28.7646C89.1077 28.7646 90.5452 28.4153 90.5452 26.889C90.5452 25.3628 89.1077 25.0135 87.3345 25.0135L87.3345 26.889L87.3345 28.7646Z" fill="#F5F5F5"/>
<path d="M23.2174 39.9495H11.1238L0 20.6239L11.7308 4.19617e-05L29.2474 30.1489L23.2174 39.9495Z" fill="#F5F5F5"/>
<path d="M23.1224 0H35.216L46.9468 20.3798L34.9644 39.9995L17.3175 9.76276L23.1224 0Z" fill="#F5F5F5"/>
<path d="M17.3328 30.2004H5.58594L17.3328 9.74977L23.0871 19.592L17.3328 30.2004Z" fill="black"/>
<path d="M29.052 9.74976H40.7988L29.2471 30.2004L23.062 19.6173L29.052 9.74976Z" fill="black"/>
</svg>
