<svg width="48" height="48" viewBox="0 0 48 48" fill="none" xmlns="http://www.w3.org/2000/svg">
<rect x="0.5" y="0.5" width="47" height="47" rx="11.5" stroke="#F5F5F5"/>
<path fill-rule="evenodd" clip-rule="evenodd" d="M17.6423 17.6421C17.797 17.4868 18.0062 17.4 18.2238 17.4H25.0809C25.2984 17.4 25.5077 17.4868 25.6624 17.6421C25.8172 17.7975 25.9046 18.0089 25.9046 18.2299V18.9948C25.9046 19.3814 26.218 19.6948 26.6046 19.6948C26.9912 19.6948 27.3046 19.3814 27.3046 18.9948V18.2299C27.3046 17.6394 27.071 17.0725 26.6543 16.6541C26.2375 16.2356 25.6715 16 25.0809 16H18.2238C17.6331 16 17.0672 16.2356 16.6503 16.6541C16.2336 17.0725 16 17.6394 16 18.2299V25.1143C16 25.7048 16.2336 26.2717 16.6503 26.6901C17.0672 27.1086 17.6331 27.3442 18.2238 27.3442H18.9857C19.3723 27.3442 19.6857 27.0308 19.6857 26.6442C19.6857 26.2576 19.3723 25.9442 18.9857 25.9442H18.2238C18.0062 25.9442 17.797 25.8574 17.6423 25.7021C17.4875 25.5467 17.4 25.3353 17.4 25.1143V18.2299C17.4 18.0089 17.4875 17.7975 17.6423 17.6421ZM21.9723 22.8193C21.9723 22.3584 22.3437 21.9895 22.7961 21.9895H29.6531C30.1055 21.9895 30.4769 22.3584 30.4769 22.8193V29.7038C30.4769 30.1647 30.1055 30.5336 29.6531 30.5336H22.7961C22.3437 30.5336 21.9723 30.1647 21.9723 29.7038V22.8193ZM22.7961 20.5895C21.5653 20.5895 20.5723 21.5905 20.5723 22.8193V29.7038C20.5723 30.9327 21.5653 31.9336 22.7961 31.9336H29.6531C30.8839 31.9336 31.8769 30.9327 31.8769 29.7038V22.8193C31.8769 21.5905 30.8839 20.5895 29.6531 20.5895H22.7961Z" fill="#F5F5F5"/>
</svg>
