<svg width="16" height="16" viewBox="0 0 16 16" fill="none" xmlns="http://www.w3.org/2000/svg">
<path fill-rule="evenodd" clip-rule="evenodd" d="M1.64227 1.64208C1.79697 1.48675 2.00621 1.4 2.22379 1.4H9.08085C9.29844 1.4 9.50767 1.48675 9.66238 1.64208C9.81718 1.7975 9.90465 2.00888 9.90465 2.22987V2.99481C9.90465 3.38141 10.218 3.69481 10.6046 3.69481C10.9912 3.69481 11.3046 3.38141 11.3046 2.99481V2.22987C11.3046 1.63937 11.071 1.07249 10.6543 0.654101C10.2375 0.235612 9.67154 0 9.08085 0H2.22379C1.6331 0 1.06717 0.235612 0.650349 0.654101C0.233617 1.0725 0 1.63937 0 2.22987V9.11429C0 9.70479 0.233617 10.2717 0.650349 10.6901C1.06717 11.1086 1.6331 11.3442 2.22379 11.3442H2.98569C3.37229 11.3442 3.68569 11.0308 3.68569 10.6442C3.68569 10.2576 3.37229 9.94417 2.98569 9.94417H2.22379C2.00621 9.94417 1.79697 9.85741 1.64227 9.70209C1.48747 9.54667 1.4 9.33529 1.4 9.11429V2.22987C1.4 2.00888 1.48747 1.7975 1.64227 1.64208ZM5.97227 6.81935C5.97227 6.35839 6.34372 5.98948 6.79606 5.98948H13.6531C14.1055 5.98948 14.4769 6.35839 14.4769 6.81935V13.7038C14.4769 14.1647 14.1055 14.5336 13.6531 14.5336H6.79606C6.34372 14.5336 5.97227 14.1647 5.97227 13.7038V6.81935ZM6.79606 4.58948C5.56527 4.58948 4.57227 5.59046 4.57227 6.81935V13.7038C4.57227 14.9327 5.56527 15.9336 6.79606 15.9336H13.6531C14.8839 15.9336 15.8769 14.9327 15.8769 13.7038V6.81935C15.8769 5.59046 14.8839 4.58948 13.6531 4.58948H6.79606Z" fill="white"/>
</svg>
