<svg width="16" height="16" viewBox="0 0 16 16" fill="none" xmlns="http://www.w3.org/2000/svg">
<path fill-rule="evenodd" clip-rule="evenodd" d="M14.2209 2.90939C14.5333 2.59697 14.5333 2.09044 14.2209 1.77802C13.9085 1.4656 13.4019 1.4656 13.0895 1.77802L7.99896 6.86858L2.9084 1.77802C2.59598 1.4656 2.08945 1.4656 1.77703 1.77802C1.46461 2.09044 1.46461 2.59697 1.77703 2.90939L6.86759 7.99995L1.77582 13.0917C1.4634 13.4041 1.4634 13.9107 1.77582 14.2231C2.08824 14.5355 2.59477 14.5355 2.90719 14.2231L7.99896 9.13132L13.0907 14.2231C13.4032 14.5355 13.9097 14.5355 14.2221 14.2231C14.5345 13.9107 14.5345 13.4041 14.2221 13.0917L9.13033 7.99995L14.2209 2.90939Z" fill="#F5F5F5"/>
</svg>
