<svg width="20" height="20" viewBox="0 0 20 20" fill="none" xmlns="http://www.w3.org/2000/svg">
<path d="M0.373047 10.2505C0.373047 14.4549 3.06852 18.0295 6.82371 19.3407C7.32884 19.4676 7.25146 19.1086 7.25146 18.8635V17.1955C4.33243 17.5373 4.21421 15.6049 4.01646 15.2825C3.6188 14.6054 2.68591 14.4334 2.9632 14.111C3.62954 13.7692 4.30664 14.197 5.08906 15.3577C5.65653 16.1982 6.76352 16.0563 7.32669 15.9166C7.44921 15.4114 7.71145 14.96 8.07257 14.6075C5.04822 14.0658 3.78646 12.2194 3.78646 10.0226C3.78646 8.95863 4.13898 7.97845 4.82682 7.18959C4.38832 5.88699 4.86766 4.77354 4.93214 4.60803C6.18315 4.49626 7.4793 5.50222 7.58248 5.58176C8.29397 5.39045 9.10433 5.28727 10.0093 5.28727C10.9207 5.28727 11.7353 5.3926 12.449 5.58606C12.6919 5.4012 13.8956 4.5371 15.0585 4.64242C15.1208 4.80794 15.5894 5.89558 15.1767 7.18099C15.8753 7.972 16.2299 8.96078 16.2299 10.0269C16.2299 12.2259 14.9617 14.0744 11.9266 14.6097C12.4318 15.1105 12.7456 15.8026 12.7456 16.5679V18.9904C12.7628 19.1838 12.7456 19.3751 13.0702 19.3751C16.8834 18.0962 19.6283 14.4936 19.6283 10.2526C19.6283 4.93261 15.3164 0.625001 10.0007 0.625001C4.68065 0.622852 0.373047 4.93046 0.373047 10.2505Z" fill="currentColor"/>
</svg>
