<svg width="24" height="24" viewBox="0 0 24 24" fill="none" xmlns="http://www.w3.org/2000/svg">
<g clip-path="url(#clip0_20241_40993)">
<path d="M22.0819 14.0821C21.4763 16.0593 20.2624 17.7951 18.6132 19.0424C17.1652 20.1322 15.4421 20.7969 13.6373 20.9618C11.8326 21.1268 10.0175 20.7854 8.396 19.9761C6.77446 19.1668 5.41057 17.9215 4.45743 16.3802C3.50428 14.8388 2.99961 13.0622 3.00005 11.2499C2.99353 9.13461 3.6812 7.07556 4.95755 5.38868C6.20493 3.73942 7.9407 2.5256 9.91786 1.91993C10.0482 1.8798 10.187 1.87596 10.3193 1.90882C10.4516 1.94167 10.5725 2.00998 10.6689 2.10639C10.7653 2.2028 10.8336 2.32367 10.8665 2.456C10.8993 2.58834 10.8955 2.72712 10.8554 2.85743C10.423 4.28752 10.3868 5.80811 10.7505 7.25718C11.1142 8.70624 11.8642 10.0295 12.9206 11.0859C13.977 12.1423 15.3003 12.8924 16.7494 13.2561C18.1984 13.6198 19.719 13.5835 21.1491 13.1512C21.2794 13.1111 21.4182 13.1072 21.5505 13.1401C21.6829 13.1729 21.8037 13.2412 21.9002 13.3376C21.9966 13.4341 22.0649 13.5549 22.0977 13.6873C22.1306 13.8196 22.1267 13.9584 22.0866 14.0887L22.0819 14.0821Z" fill="#F5F5F5"/>
</g>
<defs>
<clipPath id="clip0_20241_40993">
<rect width="24" height="24" fill="white"/>
</clipPath>
</defs>
</svg>
