<svg width="24" height="24" viewBox="0 0 24 24" fill="none" xmlns="http://www.w3.org/2000/svg">
<path d="M0.447266 12.3006C0.447266 17.3459 3.68184 21.6354 8.18806 23.2089C8.79422 23.3611 8.70136 22.9303 8.70136 22.6362V20.6346C5.19853 21.0448 5.05666 18.7259 4.81936 18.339C4.34217 17.5264 3.2227 17.3201 3.55545 16.9332C4.35506 16.5231 5.16758 17.0364 6.10648 18.4292C6.78744 19.4378 8.11584 19.2675 8.79164 19.0999C8.93867 18.4937 9.25335 17.952 9.68669 17.529C6.05747 16.879 4.54336 14.6633 4.54336 12.0272C4.54336 10.7504 4.96638 9.57414 5.79179 8.6275C5.26559 7.06438 5.8408 5.72825 5.91818 5.52964C7.4194 5.39551 8.97478 6.60267 9.09859 6.69811C9.95237 6.46854 10.9248 6.34473 12.0107 6.34473C13.1044 6.34473 14.082 6.47112 14.9384 6.70327C15.2298 6.48144 16.6743 5.44452 18.0698 5.57091C18.1446 5.76952 18.7069 7.0747 18.2116 8.61718C19.0499 9.5664 19.4755 10.7529 19.4755 12.0323C19.4755 14.671 17.9537 16.8893 14.3116 17.5316C14.9177 18.1326 15.2943 18.9632 15.2943 19.8814V22.7884C15.315 23.0206 15.2943 23.2501 15.6838 23.2501C20.2597 21.7154 23.5536 17.3923 23.5536 12.3032C23.5536 5.91913 18.3793 0.750001 12.0004 0.750001C5.61639 0.747423 0.447266 5.91655 0.447266 12.3006Z" fill="white"/>
</svg>
