<svg width="21" height="20" viewBox="0 0 21 20" fill="none" xmlns="http://www.w3.org/2000/svg">
<path d="M17.941 3.93805C16.6463 3.33228 15.2619 2.89203 13.8146 2.64136C13.6368 2.96272 13.4292 3.39496 13.286 3.73882C11.7475 3.50743 10.2231 3.50743 8.71278 3.73882C8.56964 3.39496 8.35728 2.96272 8.17797 2.64136C6.7291 2.89203 5.3431 3.3339 4.04839 3.94126C1.43694 7.88751 0.729021 11.7357 1.08298 15.5293C2.81504 16.8228 4.49357 17.6085 6.14384 18.1227C6.55126 17.5619 6.91467 16.9658 7.22774 16.3375C6.63152 16.111 6.06045 15.8314 5.52085 15.5068C5.66407 15.4008 5.80408 15.2899 5.93931 15.1758C9.23038 16.7151 12.8062 16.7151 16.0579 15.1758C16.1948 15.2899 16.3348 15.4008 16.4764 15.5068C15.9352 15.833 15.3626 16.1125 14.7664 16.3392C15.0794 16.9658 15.4413 17.5635 15.8503 18.1242C17.5021 17.6101 19.1822 16.8244 20.9142 15.5293C21.3296 11.1316 20.2048 7.31869 17.941 3.93805ZM7.67611 13.1963C6.68814 13.1963 5.878 12.274 5.878 11.1508C5.878 10.0277 6.67083 9.10384 7.67611 9.10384C8.68139 9.10384 9.49153 10.0261 9.47422 11.1508C9.47579 12.274 8.68139 13.1963 7.67611 13.1963ZM14.3211 13.1963C13.3332 13.1963 12.523 12.274 12.523 11.1508C12.523 10.0277 13.3159 9.10384 14.3211 9.10384C15.3264 9.10384 16.1365 10.0261 16.1192 11.1508C16.1192 12.274 15.3264 13.1963 14.3211 13.1963Z" fill="currentColor"/>
</svg>
