<svg width="134" height="30" viewBox="0 0 134 30" fill="none" xmlns="http://www.w3.org/2000/svg">
<path fill-rule="evenodd" clip-rule="evenodd" d="M0.815979 29.5711H11.7279L25.2073 5.51208V29.5711H43.8218V19.5465L36.1192 27.5662V0.833946H16.8629L0.815979 29.5711ZM59.7159 16.6564H63.8145C63.8145 14.9774 63.329 13.6112 62.3578 12.5577C61.4031 11.5043 60.0286 10.9775 58.2344 10.9775C56.0616 10.9775 54.3415 11.6606 53.074 13.0269C52.3498 13.8005 51.823 14.6153 51.4938 15.4713C51.1646 16.3272 50.7942 17.8087 50.3827 19.9156C50.07 21.4464 49.9136 22.7139 49.9136 23.718C49.9136 25.1007 50.3827 26.3023 51.321 27.3229C52.2592 28.3434 53.6584 28.8537 55.5184 28.8537C57.5595 28.8537 59.222 28.1788 60.506 26.8291C61.1973 26.0883 61.7323 25.2653 62.1109 24.36C62.5059 23.4546 62.8269 22.3436 63.0738 21.0267L63.5183 18.6564H56.9505L56.3085 22.0637H58.8023L58.7282 22.4341C58.5472 23.29 58.1933 23.9731 57.6665 24.4834C57.1562 24.9937 56.5472 25.2488 55.8394 25.2488C55.2962 25.2488 54.86 25.0842 54.5308 24.755C54.2016 24.4258 54.037 23.9649 54.037 23.3723C54.037 22.4999 54.1933 21.3477 54.5061 19.9156C54.8188 18.4835 55.0822 17.4548 55.2962 16.8293C55.5102 16.1873 55.7818 15.6935 56.111 15.3478C56.6213 14.8375 57.2303 14.5824 57.9381 14.5824C59.0739 14.5824 59.6665 15.2737 59.7159 16.6564ZM74.2893 28.7056H77.2028L83.499 15.4219H79.4003L76.5114 22.4341L75.6966 15.4219H72.9806L69.4498 22.4341L69.1782 15.4219H65.3512L66.5116 28.7056H69.5239L73.351 21.2983L74.2893 28.7056ZM93.9501 15.6935L96.8143 13.175C95.6785 11.71 93.9254 10.9775 91.5551 10.9775C89.4152 10.9775 87.6786 11.5372 86.3453 12.6565C85.012 13.7594 84.3454 15.2573 84.3454 17.1502C84.3454 19.323 85.7116 20.7633 88.4441 21.4711L89.7774 21.8168C90.3041 21.9485 90.6827 22.1213 90.9132 22.3353C91.1436 22.5493 91.2588 22.8785 91.2588 23.323C91.2588 23.8332 90.9872 24.2777 90.444 24.6563C89.9173 25.0349 89.2589 25.2242 88.4688 25.2242C86.8556 25.2242 85.6458 24.7633 84.8392 23.8415L81.8763 26.434C82.6335 27.3064 83.4894 27.9319 84.4441 28.3105C85.3989 28.6726 86.6169 28.8537 88.0984 28.8537C90.156 28.8537 91.8843 28.3599 93.2835 27.3723C94.6826 26.3846 95.3822 24.8949 95.3822 22.9032C95.3822 21.6028 95.0777 20.5823 94.4686 19.8415C93.8596 19.1008 92.7979 18.5412 91.2835 18.1626L89.9502 17.8169L89.2095 17.5947C89.0449 17.5288 88.872 17.4054 88.691 17.2243C88.5264 17.0268 88.4441 16.7799 88.4441 16.4836C88.4441 16.0062 88.6827 15.57 89.1601 15.175C89.6539 14.7635 90.2959 14.5577 91.086 14.5577C92.3864 14.5577 93.3411 14.9363 93.9501 15.6935ZM105.14 19.6193L108.053 17.0515C107.082 15.8663 105.765 15.2737 104.103 15.2737C100.432 15.2737 98.1853 17.5371 97.3623 22.0637C97.2306 22.7715 97.1648 23.4629 97.1648 24.1378C97.1648 25.2077 97.4199 26.113 97.9302 26.8538C98.4405 27.5945 99.0413 28.113 99.7326 28.4093C100.424 28.7056 101.165 28.8537 101.955 28.8537C103.683 28.8537 105.14 28.327 106.325 27.2735L104.202 24.4834C103.609 25.076 103 25.3723 102.375 25.3723C101.486 25.3723 101.041 24.7879 101.041 23.6192C101.041 23.1913 101.099 22.6728 101.214 22.0637C101.445 20.8456 101.84 19.9403 102.399 19.3477C102.778 18.9527 103.222 18.7551 103.733 18.7551C104.226 18.7551 104.695 19.0432 105.14 19.6193ZM119.56 20.3354C119.658 19.8415 119.708 19.43 119.708 19.1008C119.708 17.8004 119.23 16.8375 118.276 16.212C117.337 15.5865 116.193 15.2737 114.844 15.2737C112.704 15.2737 111.033 15.8416 109.831 16.9774L111.757 19.5453C112.366 18.8374 113.189 18.4835 114.226 18.4835C115.28 18.4835 115.807 18.8704 115.807 19.644C115.807 19.8251 115.782 20.0144 115.732 20.2119L115.634 20.681H112.868C111.189 20.681 109.897 21.1255 108.992 22.0143C108.202 22.7715 107.807 23.8332 107.807 25.1995C107.807 26.1706 108.136 27.0184 108.794 27.7426C109.453 28.4669 110.358 28.829 111.51 28.829C112.63 28.829 113.593 28.4257 114.399 27.6192L114.177 28.7056H117.881L119.56 20.3354ZM113.239 23.2489H115.115L115.041 23.6192C114.926 24.2612 114.712 24.7386 114.399 25.0513C113.938 25.5122 113.387 25.7427 112.745 25.7427C112.383 25.7427 112.095 25.6521 111.881 25.4711C111.683 25.2735 111.584 25.0349 111.584 24.755C111.584 24.3435 111.724 23.9896 112.004 23.6933C112.3 23.397 112.712 23.2489 113.239 23.2489ZM133.009 20.4588C133.124 19.9321 133.181 19.4218 133.181 18.928C133.181 17.677 132.836 16.7552 132.144 16.1626C131.47 15.57 130.729 15.2737 129.922 15.2737C128.622 15.2737 127.535 15.7099 126.663 16.5823L126.885 15.4219H123.206L120.564 28.7056H124.416L126.021 20.681C126.284 19.3971 126.968 18.7551 128.07 18.7551C128.35 18.7551 128.605 18.8621 128.836 19.0761C129.066 19.2901 129.181 19.6029 129.181 20.0144C129.181 20.2448 129.157 20.467 129.107 20.681L127.503 28.7056H131.354L133.009 20.4588Z" fill="#4C2CE4"/>
</svg>
