<svg width="47" height="70" viewBox="0 0 47 70" fill="none" xmlns="http://www.w3.org/2000/svg">
<path fill-rule="evenodd" clip-rule="evenodd" d="M0.967926 39.5775L23.7752 52.77L45.2755 40.3336L23.8904 27.8687V0.0665855L23.7752 0L0.967926 13.1925V39.5775ZM28.7268 27.3577L32.4402 29.5072L28.7268 15.5766L34.9634 6.39229L31.6196 4.43456L25.741 14.6564L28.7268 27.3577ZM40.0901 9.39724L43.8035 11.5468L46.5825 23.8348L39.6311 33.6868L36.2733 31.7407L43.8033 23.0149L40.0901 9.39724Z" fill="#0057FF"/>
<path fill-rule="evenodd" clip-rule="evenodd" d="M0.968422 39.581L23.829 52.8054L45.3936 40.2612L24.0086 27.7844V27.757L23.8282 27.8614L0.968422 39.581Z" fill="url(#paint0_linear_30120_49822)"/>
<path d="M6.07537 63.4529L9.97152 57.6403H13.7271L9.37954 63.6054L13.3796 69.8397L9.61582 69.8314L6.04228 63.8341L5.68658 69.848H1.95587L3.02297 57.6155H6.75368L6.07537 63.4529Z" fill="#0057FF"/>
<path d="M18.0426 67.2718L22.4971 67.2635L23.3986 57.632H26.842L25.7749 69.848H14.5001L15.5672 57.632L18.9524 57.6403L18.0426 67.2718Z" fill="#0057FF"/>
<path d="M35.5019 66.5183H31.6968L29.9748 69.8562H26.517L32.4068 57.6237H36.2698L40.0088 69.8562H36.5097L35.5019 66.5183ZM32.291 64.6268H35.1696L34.1605 60.3421L32.291 64.6268Z" fill="#0057FF"/>
<path d="M45.8565 57.4331L44.7729 69.8562H40.9347L42.0183 57.4331H45.8565Z" fill="#0057FF"/>
<path d="M23.8964 52.6027V27.7376L0.967926 39.5799L23.8964 52.6027Z" fill="url(#paint1_linear_30120_49822)"/>
<defs>
<linearGradient id="paint0_linear_30120_49822" x1="23.181" y1="52.8054" x2="23.181" y2="27.7569" gradientUnits="userSpaceOnUse">
<stop stop-color="#0057FF"/>
<stop offset="1" stop-color="#6E85FD"/>
</linearGradient>
<linearGradient id="paint1_linear_30120_49822" x1="12.4321" y1="27.7375" x2="12.4321" y2="52.6027" gradientUnits="userSpaceOnUse">
<stop stop-color="#71F4FD"/>
<stop offset="1" stop-color="#71F4FD" stop-opacity="0"/>
</linearGradient>
</defs>
</svg>
