<svg width="131" height="24" viewBox="0 0 131 24" fill="none" xmlns="http://www.w3.org/2000/svg">
<path fill-rule="evenodd" clip-rule="evenodd" d="M98.0648 1.18337C99.4833 0.562756 100.992 0.250671 102.602 0.250671C104.212 0.250671 105.72 0.562756 107.139 1.18337L107.145 1.18618L107.152 1.18891C108.583 1.79288 109.815 2.62664 110.856 3.69023L110.864 3.69823L110.872 3.70605C111.936 4.74749 112.769 5.97889 113.373 7.41053L113.376 7.41698L113.379 7.4234C114 8.84196 114.312 10.3508 114.312 11.9605C114.312 13.5702 114 15.079 113.379 16.4976L113.376 16.504L113.373 16.5105C112.769 17.9441 111.933 19.1908 110.864 20.2593C109.821 21.3028 108.584 22.1408 107.145 22.7713C105.726 23.3692 104.214 23.6703 102.602 23.6703C100.989 23.6703 99.478 23.3692 98.0584 22.7713C96.6208 22.1415 95.3719 21.3039 94.3031 20.2592C93.2585 19.1905 92.4208 17.9415 91.791 16.504C91.1932 15.0843 90.892 13.5731 90.892 11.9605C90.892 10.3479 91.1932 8.83662 91.791 7.41699C92.4216 5.97783 93.2596 4.74166 94.3031 3.69818C95.3715 2.62972 96.6183 1.79371 98.0519 1.18891L98.0583 1.18618L98.0648 1.18337ZM102.602 5.78907C101.758 5.78907 100.948 5.9499 100.181 6.27445L100.174 6.27741L100.167 6.28046C99.4401 6.60023 98.7948 7.03951 98.2378 7.59645C97.6757 8.15857 97.2367 8.81977 96.9188 9.56899C96.5903 10.3183 96.4304 11.1195 96.4304 11.9605C96.4304 12.8043 96.5913 13.6144 96.9158 14.3816L96.9188 14.3885L96.9218 14.3955C97.2416 15.1222 97.6809 15.7676 98.2378 16.3245C98.7948 16.8815 99.4401 17.3208 100.167 17.6405L100.174 17.6436L100.181 17.6465C100.948 17.9711 101.758 18.1319 102.602 18.1319C103.443 18.1319 104.244 17.9721 104.993 17.6437C105.742 17.3257 106.404 16.8867 106.966 16.3245C107.523 15.7676 107.962 15.1222 108.282 14.3955L108.285 14.3885L108.288 14.3816C108.612 13.6144 108.773 12.8043 108.773 11.9605C108.773 11.1195 108.613 10.3182 108.285 9.56894C107.967 8.81974 107.528 8.15855 106.966 7.59645C106.404 7.03431 105.743 6.5953 104.993 6.27734C104.244 5.94888 103.443 5.78907 102.602 5.78907ZM123.919 0.524995C122.903 0.524995 121.955 0.668326 121.07 0.948947L121.062 0.951445L121.054 0.953821C120.202 1.2096 119.476 1.58672 118.862 2.07752C118.264 2.55576 117.793 3.15418 117.447 3.88785C117.112 4.59717 116.929 5.44563 116.929 6.45843C116.929 7.35771 117.078 8.1222 117.352 8.77093C117.654 9.45923 118.027 10.0768 118.471 10.6275C118.964 11.2093 119.474 11.7184 120 12.1575C120.597 12.635 121.147 13.0776 121.651 13.4854C122.199 13.885 122.67 14.2752 123.053 14.6564C123.5 15.0765 123.886 15.6487 123.886 16.3667C123.886 17.0441 123.64 17.7029 123.037 18.1485C122.494 18.5497 121.808 18.6658 121.15 18.6658C120.478 18.6658 119.806 18.627 119.134 18.5495L119.132 18.5492L119.13 18.5489C118.504 18.4739 117.927 18.373 117.401 18.2437C117.267 18.2209 117.134 18.1963 117.002 18.1699V23.2702C117.331 23.3468 117.681 23.4173 118.052 23.4812L118.066 23.4836L118.08 23.4864C118.643 23.599 119.298 23.6915 120.047 23.7618L120.061 23.7631L120.076 23.7649C120.829 23.8562 121.648 23.9029 122.534 23.9029C123.973 23.9029 125.166 23.7083 126.137 23.3494L126.147 23.3458L126.157 23.3425C127.158 22.9941 127.927 22.5317 128.5 21.9784C129.116 21.3827 129.56 20.7048 129.843 19.9382C130.138 19.1142 130.289 18.2297 130.289 17.2773C130.289 16.3763 130.139 15.5933 129.859 14.9127L129.854 14.9002L129.849 14.8876C129.565 14.1446 129.209 13.4901 128.785 12.9181L128.778 12.9077L128.77 12.8972C128.356 12.3081 127.89 11.7889 127.373 11.3365L127.365 11.3291L127.356 11.3215C126.811 10.8239 126.307 10.3901 125.842 10.0187L125.832 10.0103L125.822 10.0017C125.359 9.61183 124.956 9.26976 124.613 8.97578L124.598 8.96308L124.583 8.94985C124.389 8.77018 124.202 8.56943 124.058 8.34783C123.919 8.13359 123.769 7.82185 123.769 7.44197C123.769 6.96218 123.943 6.47207 124.369 6.1172C124.644 5.88787 124.96 5.73314 125.301 5.64805C125.567 5.58157 125.839 5.54829 126.116 5.54401C126.335 5.52093 126.54 5.5071 126.724 5.5071C127.023 5.5071 127.313 5.52069 127.594 5.5488L127.739 5.56361V0.859603C127.53 0.830561 127.319 0.801515 127.106 0.772466C126.658 0.725433 126.149 0.678131 125.579 0.630615L125.557 0.628799L125.536 0.626088C124.996 0.558645 124.457 0.524995 123.919 0.524995ZM22.4902 23.1076L22.4901 0.737497H0.46999L22.4902 23.1076ZM0.470311 23.0767L0.470251 1.17322L9.44916 23.0767H0.470311ZM64.4557 0.834656V23.0501H70.1036V11.9232L76.1623 19.9181L82.191 11.9024V23.0501H87.8389V0.834656H83.0431L76.1681 10.5831L69.2533 0.834656H64.4557ZM42.8861 15.2449V0.834656H48.534V14.9165C48.534 15.8904 48.7259 16.8034 49.252 17.5173L49.2709 17.5429L49.2912 17.5673C49.9361 18.3411 50.8997 18.6064 51.8955 18.6064C52.883 18.6064 53.8575 18.3445 54.4833 17.5427C55.0479 16.8257 55.257 15.9023 55.257 14.9165V0.834656H60.9414V15.2449C60.9414 16.7458 60.7138 18.0027 60.2903 19.04L60.2868 19.0487L60.2834 19.0574C59.8792 20.1 59.2946 20.9372 58.5355 21.5938L58.53 21.5985L58.5246 21.6033C57.7728 22.2715 56.8508 22.786 55.7376 23.1353C54.6163 23.4871 53.3391 23.6704 51.8955 23.6704C50.452 23.6704 49.1748 23.4871 48.0534 23.1353C46.9402 22.786 46.0182 22.2715 45.2665 21.6033C44.5257 20.9448 43.9353 20.1014 43.5043 19.0487C43.1021 18.0077 42.8861 16.7473 42.8861 15.2449ZM27.9501 0.834656V23.0501H40.641V18.0563H33.6125V0.834656H27.9501Z" fill="white"/>
</svg>
