<svg width="68" height="44" viewBox="0 0 68 44" fill="none" xmlns="http://www.w3.org/2000/svg">
<path d="M64.0008 28.7166C64.0008 25.7653 62.8285 22.935 60.7416 20.8481C58.6548 18.7612 55.8244 17.5889 52.8731 17.5889C49.9219 17.5889 47.0915 18.7612 45.0046 20.8481C42.9178 22.935 41.7454 25.7653 41.7454 28.7166C41.7454 31.6678 42.9178 34.4982 45.0046 36.5851C47.0915 38.6719 49.9219 39.8443 52.8731 39.8443C55.8244 39.8443 58.6548 38.6719 60.7416 36.5851C62.8285 34.4982 64.0008 31.6678 64.0008 28.7166Z" stroke="#7396AD" stroke-width="2.78193"/>
<path d="M26.2557 28.6888C26.2557 25.7293 25.08 22.8909 22.9873 20.7982C20.8946 18.7054 18.0562 17.5298 15.0967 17.5298C12.1371 17.5298 9.29874 18.7054 7.20601 20.7982C5.11328 22.8909 3.93759 25.7293 3.93759 28.6888C3.93759 31.6484 5.11328 34.4867 7.20601 36.5795C9.29874 38.6722 12.1371 39.8479 15.0967 39.8479C18.0562 39.8479 20.8946 38.6722 22.9873 36.5795C25.08 34.4867 26.2557 31.6484 26.2557 28.6888Z" fill="#A9F1BD"/>
<path d="M64.0586 28.6888C64.0586 25.7293 62.8829 22.8909 60.7901 20.7982C58.6974 18.7054 55.8591 17.5298 52.8995 17.5298C49.9399 17.5298 47.1016 18.7054 45.0088 20.7982C42.9161 22.8909 41.7404 25.7293 41.7404 28.6888C41.7404 31.6484 42.9161 34.4867 45.0088 36.5795C47.1016 38.6722 49.9399 39.8479 52.8995 39.8479C55.8591 39.8479 58.6974 38.6722 60.7901 36.5795C62.8829 34.4867 64.0586 31.6484 64.0586 28.6888Z" fill="#A9F1BD"/>
<path d="M22.9968 28.6888C22.9968 26.5938 22.1646 24.5846 20.6832 23.1032C19.2018 21.6219 17.1926 20.7896 15.0977 20.7896C13.0027 20.7896 10.9935 21.6219 9.51215 23.1032C8.03077 24.5846 7.19855 26.5938 7.19855 28.6888C7.19855 30.7837 8.03077 32.7929 9.51215 34.2743C10.9935 35.7557 13.0027 36.5879 15.0977 36.5879C17.1926 36.5879 19.2018 35.7557 20.6832 34.2743C22.1646 32.7929 22.9968 30.7837 22.9968 28.6888Z" fill="#80D6A1"/>
<path d="M60.7989 28.6893C60.7989 26.5943 59.9667 24.5852 58.4853 23.1038C57.0039 21.6224 54.9947 20.7902 52.8998 20.7902C50.8048 20.7902 48.7956 21.6224 47.3142 23.1038C45.8329 24.5852 45.0006 26.5943 45.0006 28.6893C45.0006 30.7843 45.8329 32.7935 47.3142 34.2748C48.7956 35.7562 50.8048 36.5884 52.8998 36.5884C54.9947 36.5884 57.0039 35.7562 58.4853 34.2748C59.9667 32.7935 60.7989 30.7843 60.7989 28.6893Z" fill="#80D6A1"/>
<path d="M16.4133 28.689C16.4133 28.3398 16.2746 28.005 16.0277 27.7581C15.7808 27.5112 15.446 27.3725 15.0968 27.3725C14.7477 27.3725 14.4128 27.5112 14.1659 27.7581C13.919 28.005 13.7803 28.3398 13.7803 28.689C13.7803 29.0381 13.919 29.373 14.1659 29.6199C14.4128 29.8668 14.7477 30.0055 15.0968 30.0055C15.446 30.0055 15.7808 29.8668 16.0277 29.6199C16.2746 29.373 16.4133 29.0381 16.4133 28.689Z" fill="white"/>
<path d="M54.2158 28.689C54.2158 28.3398 54.0771 28.005 53.8302 27.7581C53.5833 27.5112 53.2484 27.3725 52.8993 27.3725C52.5501 27.3725 52.2153 27.5112 51.9684 27.7581C51.7215 28.005 51.5828 28.3398 51.5828 28.689C51.5828 29.0381 51.7215 29.373 51.9684 29.6199C52.2153 29.8668 52.5501 30.0055 52.8993 30.0055C53.2484 30.0055 53.5833 29.8668 53.8302 29.6199C54.0771 29.373 54.2158 29.0381 54.2158 28.689Z" fill="white"/>
<path d="M13.2164 24.3005C13.2164 23.7851 13.0117 23.2908 12.6472 22.9263C12.2827 22.5618 11.7884 22.3571 11.273 22.3571C10.7576 22.3571 10.2632 22.5618 9.89878 22.9263C9.53431 23.2908 9.32956 23.7851 9.32956 24.3005C9.32956 24.816 9.53431 25.3103 9.89878 25.6747C10.2632 26.0392 10.7576 26.244 11.273 26.244C11.7884 26.244 12.2827 26.0392 12.6472 25.6747C13.0117 25.3103 13.2164 24.816 13.2164 24.3005Z" fill="white"/>
<path d="M51.0192 24.3005C51.0192 23.7851 50.8145 23.2908 50.45 22.9263C50.0855 22.5618 49.5912 22.3571 49.0758 22.3571C48.5604 22.3571 48.066 22.5618 47.7016 22.9263C47.3371 23.2908 47.1324 23.7851 47.1324 24.3005C47.1324 24.816 47.3371 25.3103 47.7016 25.6747C48.066 26.0392 48.5604 26.244 49.0758 26.244C49.5912 26.244 50.0855 26.0392 50.45 25.6747C50.8145 25.3103 51.0192 24.816 51.0192 24.3005Z" fill="white"/>
<path d="M38.1847 23.2499C38.1847 22.1543 37.7494 21.1035 36.9747 20.3287C36.1999 19.554 35.1492 19.1187 34.0535 19.1187C32.9578 19.1187 31.9071 19.554 31.1323 20.3287C30.3576 21.1035 29.9223 22.1543 29.9223 23.2499C29.9223 24.3456 30.3576 25.3963 31.1323 26.1711C31.9071 26.9458 32.9578 27.3811 34.0535 27.3811C35.1492 27.3811 36.1999 26.9458 36.9747 26.1711C37.7494 25.3963 38.1847 24.3456 38.1847 23.2499Z" stroke="#4B328F" stroke-width="2.78193"/>
<path d="M25.6527 5.35944L29.0606 6.12447C29.2822 6.1746 29.4823 6.26459 29.6392 6.38472C29.7961 6.50485 29.9039 6.65054 29.9508 6.80604C31.0265 10.3855 36.2868 10.4421 37.8227 6.80604C37.9168 6.58342 37.9446 6.55298 38.1675 6.38472C38.3556 6.2428 38.6973 6.23695 39.1079 6.12447C39.7626 5.94511 40.6345 5.8725 42.2191 5.47071C46.9391 3.61609 51.5015 3.579 55.9062 5.35944C59.0127 8.1321 61.2336 11.5121 62.5689 15.4996C62.5504 16.0096 62.3928 16.3852 62.096 16.6263C61.9651 16.7292 61.777 16.7776 61.5562 16.7652C61.3355 16.7528 61.0922 16.6802 60.8581 16.5567C54.5987 13.1628 48.5434 13.6403 42.692 17.9894C37.0354 17.0992 31.3557 16.9833 25.6527 17.6417C17.9746 14.9432 15.2761 12.3282 7.12505 16.7375C6.41102 17.1177 5.84536 16.821 5.42807 15.8473C6.7634 11.6837 9.00285 8.09037 12.1464 5.06733C16.681 3.63 21.1831 3.72737 25.6527 5.35944ZM40.1327 8.48911C35.561 13.0886 31.5829 13.1349 28.1982 8.62821C26.8907 6.88486 26.2647 7.06569 26.3204 9.17068L26.4873 14.665C26.4909 14.8582 26.5732 15.0422 26.7162 15.1775C26.8593 15.3128 27.0518 15.3885 27.2523 15.3883H41.0924C41.2966 15.3885 41.4927 15.3128 41.6383 15.1776C41.784 15.0423 41.8677 14.8582 41.8714 14.665L41.9548 9.10113C41.9734 7.45052 41.366 7.24651 40.1327 8.48911Z" fill="#704AD5"/>
<path d="M42.6916 17.9923C39.65 21.5995 38.2405 25.7538 38.4631 30.4553C35.3102 29.2498 32.2176 29.3657 29.1853 30.803C29.4821 28.392 28.9352 25.8111 28.2305 23.5485C27.5211 21.2395 27.5409 20.3289 25.6523 17.6445C31.3552 16.9861 37.035 17.102 42.6916 17.9923ZM38.1849 23.2501C38.1849 22.1544 37.7496 21.1037 36.9749 20.3289C36.2001 19.5542 35.1494 19.1189 34.0537 19.1189C32.9581 19.1189 31.9073 19.5542 31.1325 20.3289C30.3578 21.1037 29.9225 22.1544 29.9225 23.2501C29.9225 24.3458 30.3578 25.3965 31.1325 26.1713C31.9073 26.946 32.9581 27.3813 34.0537 27.3813C35.1494 27.3813 36.2001 26.946 36.9749 26.1713C37.7496 25.3965 38.1849 24.3458 38.1849 23.2501Z" fill="#432D80"/>
<path fill-rule="evenodd" clip-rule="evenodd" d="M55.906 5.36232C51.5013 3.58188 46.939 3.61897 42.2189 5.47359C46.9853 -1.78725 51.5477 -1.82434 55.906 5.36232ZM25.6519 5.36209C21.1823 3.73002 16.6802 3.63265 12.1456 5.06998C14.8997 -1.50928 23.1621 -1.18936 25.6519 5.36209ZM40.1319 8.49175C41.3652 7.24915 41.9726 7.45316 41.9541 9.10377L41.8706 14.6676C41.867 14.8609 41.7833 15.0449 41.6376 15.1802C41.4919 15.3155 41.2959 15.3912 41.0917 15.3909H27.2516C27.0511 15.3911 26.8586 15.3154 26.7155 15.1801C26.5724 15.0448 26.4902 14.8608 26.4865 14.6676L26.3196 9.17332C26.264 7.06833 26.8899 6.8875 28.1974 8.63085C31.5821 13.1376 35.5603 13.0912 40.1319 8.49175ZM66.8062 25.0682L62.5684 15.5025C62.5498 16.0125 62.3922 16.3881 62.0955 16.6292C61.9645 16.7321 61.7764 16.7805 61.5557 16.7681C61.3349 16.7557 61.0917 16.6831 60.8575 16.5596C54.5982 13.1657 48.5428 13.6432 42.6915 17.9923C39.6499 21.5996 38.2404 25.7539 38.463 30.4554C42.0771 46.8614 62.2102 47.1964 67.0189 32.1654C67.2871 31.3271 67.3811 30.4416 67.3811 29.5614V27.7853C67.3811 26.8494 67.1853 25.9239 66.8062 25.0682ZM60.7418 20.8482C62.8287 22.935 64.0011 25.7654 64.0011 28.7167C64.0011 31.6679 62.8287 34.4983 60.7418 36.5852C58.655 38.672 55.8246 39.8444 52.8734 39.8444C49.9221 39.8444 47.0917 38.672 45.0049 36.5852C42.918 34.4983 41.7456 31.6679 41.7456 28.7167C41.7456 25.7654 42.918 22.935 45.0049 20.8482C47.0917 18.7613 49.9221 17.5889 52.8734 17.5889C55.8246 17.5889 58.655 18.7613 60.7418 20.8482ZM25.652 17.6446C27.5719 19.9125 28.4756 21.2082 29.185 23.5172C29.8373 25.6114 29.5364 28.0051 29.2527 30.2615L29.2525 30.2625C29.2297 30.4437 29.2071 30.624 29.185 30.8031C25.5999 47.5063 4.38038 46.8601 0.743881 30.9808C0.652644 30.5824 0.614594 30.1661 0.614594 29.7574V28.6994C0.614594 27.2805 0.915641 25.8777 1.49785 24.5837L5.42734 15.8503C5.84462 16.8239 6.41028 17.1207 7.12431 16.7405C13.8926 13.0791 16.9014 14.2611 22.1234 16.3124C23.1902 16.7315 24.3494 17.1868 25.652 17.6446ZM26.1945 28.7028C26.1945 25.7552 25.0235 22.9284 22.9393 20.8441C20.855 18.7599 18.0282 17.589 15.0806 17.589C12.1331 17.589 9.30623 18.7599 7.22198 20.8441C5.13774 22.9284 3.96682 25.7552 3.96682 28.7028C3.96682 31.6504 5.13774 34.4772 7.22198 36.5614C9.30623 38.6457 12.1331 39.8166 15.0806 39.8166C18.0282 39.8166 20.855 38.6457 22.9393 36.5614C25.0235 34.4772 26.1945 31.6504 26.1945 28.7028ZM38.1852 23.2502C38.1852 25.5317 36.3356 27.3813 34.054 27.3813C31.7724 27.3813 29.9228 25.5317 29.9228 23.2502C29.9228 20.9686 31.7724 19.119 34.054 19.119C36.3356 19.119 38.1852 20.9686 38.1852 23.2502Z" fill="#52369E"/>
<path fill-rule="evenodd" clip-rule="evenodd" d="M49.0441 3.17365C50.7926 3.17365 52.21 2.90701 52.21 2.57808C52.21 2.24916 50.7926 1.98251 49.0441 1.98251C47.2956 1.98251 45.8782 2.24916 45.8782 2.57808C45.8782 2.90701 47.2956 3.17365 49.0441 3.17365ZM18.7643 3.17371C20.5128 3.17371 21.9302 2.90707 21.9302 2.57815C21.9302 2.24922 20.5128 1.98258 18.7643 1.98258C17.0158 1.98258 15.5984 2.24922 15.5984 2.57815C15.5984 2.90707 17.0158 3.17371 18.7643 3.17371Z" fill="white"/>
</svg>
