<svg width="16" height="16" viewBox="0 0 16 16" fill="none" xmlns="http://www.w3.org/2000/svg">
<path d="M7.09393 3.819C7.03071 3.82475 6.98617 3.85492 6.96031 3.90952C6.93445 3.96412 6.91002 3.99141 6.88703 3.99141C6.8583 3.99716 6.84393 3.98279 6.84393 3.94831C6.84393 3.87935 6.89853 3.83624 7.00772 3.819H7.09393ZM7.84392 3.93969C7.82093 3.94544 7.78788 3.92676 7.74478 3.88366C7.70168 3.84055 7.65139 3.82762 7.59392 3.84486C7.73185 3.78165 7.8238 3.78739 7.86978 3.86211C7.88702 3.89659 7.8784 3.92245 7.84392 3.93969ZM4.81811 7.62067C4.79512 7.61492 4.77788 7.62354 4.76638 7.64653C4.75489 7.66952 4.74196 7.70544 4.72759 7.75429C4.71322 7.80314 4.69742 7.84193 4.68018 7.87067C4.66294 7.8994 4.6342 7.93676 4.59397 7.98273C4.55374 8.04021 4.55087 8.07469 4.58535 8.08618C4.60834 8.09193 4.64426 8.07181 4.69311 8.02584C4.74196 7.97986 4.77788 7.92814 4.80087 7.87067C4.80661 7.85343 4.81236 7.83331 4.81811 7.81032C4.82385 7.78734 4.8296 7.77009 4.83535 7.7586C4.8411 7.74711 4.84541 7.73418 4.84828 7.71981C4.85115 7.70544 4.86552 7.69395 4.89138 7.68533V7.65946L4.88276 7.63791L4.8569 7.62067L4.81811 7.62067ZM12.1887 10.7155C12.1887 10.612 12.0306 10.4913 11.7146 10.3534C11.7375 10.2672 11.7591 10.1882 11.7792 10.1163C11.7993 10.0445 11.8137 9.96978 11.8223 9.89219C11.8309 9.81461 11.8395 9.75283 11.8482 9.70685C11.8568 9.66087 11.8712 9.59622 11.8913 9.51289C11.9114 9.42956 11.9085 9.37352 11.8827 9.34479C11.8568 9.31605 11.8467 9.25283 11.8525 9.15513C11.8582 9.05743 11.8467 8.99853 11.818 8.97841C11.7893 8.9583 11.7749 8.88646 11.7749 8.7629C11.7749 8.63934 11.7591 8.56319 11.7275 8.53445C11.67 8.2586 11.535 7.96262 11.3223 7.64654C11.1097 7.33045 10.9028 7.11493 10.7016 6.99999C10.8396 7.11494 11.0034 7.35344 11.193 7.7155C11.693 8.64652 11.8482 9.44537 11.6585 10.112C11.5953 10.3419 11.4516 10.4626 11.2275 10.4741C11.0493 10.4971 10.9387 10.4439 10.8956 10.3146C10.8525 10.1853 10.8295 9.94535 10.8266 9.59478C10.8238 9.24421 10.7907 8.93675 10.7275 8.67238C10.6758 8.44825 10.6197 8.24997 10.5594 8.07756C10.499 7.90515 10.443 7.77441 10.3913 7.68533C10.3396 7.59625 10.295 7.52585 10.2577 7.47412C10.2203 7.4224 10.183 7.3793 10.1456 7.34481C10.1082 7.31033 10.0867 7.29022 10.081 7.28447C10.0005 6.92815 9.91141 6.63218 9.81371 6.39655C9.71601 6.16093 9.63125 6.00001 9.55941 5.9138C9.48757 5.8276 9.42004 5.73277 9.35682 5.62932C9.29361 5.52588 9.2505 5.41094 9.22752 5.2845C9.20453 5.16381 9.22177 5.01008 9.27924 4.8233C9.33671 4.63652 9.34964 4.49428 9.31803 4.39658C9.28642 4.29888 9.15855 4.22705 8.93442 4.18107C8.84821 4.16383 8.72034 4.11211 8.5508 4.0259C8.38126 3.9397 8.27925 3.89372 8.24477 3.88797C8.19879 3.88223 8.16719 3.80751 8.14994 3.66384C8.1327 3.52016 8.15569 3.37361 8.21891 3.22419C8.28213 3.07477 8.38557 2.99718 8.52925 2.99143C8.74189 2.97419 8.88844 3.0604 8.9689 3.25005C9.04936 3.4397 9.06085 3.60637 9.00338 3.75004C8.94016 3.85924 8.93442 3.93539 8.98614 3.97849C9.03786 4.02159 9.12407 4.03596 9.24476 4.02159C9.31947 3.9986 9.35682 3.89516 9.35682 3.71125V3.39229C9.32809 3.21988 9.2893 3.0762 9.24045 2.96126C9.1916 2.84632 9.13125 2.75868 9.05941 2.69834C8.98758 2.63799 8.92005 2.59489 8.85683 2.56903C8.79361 2.54317 8.71603 2.52161 8.62407 2.50437C8.00914 2.55035 7.7534 2.9354 7.85685 3.65953C7.85685 3.74573 7.85397 3.78884 7.84823 3.78884C7.7965 3.73711 7.71173 3.70694 7.59392 3.69832C7.47611 3.6897 7.38128 3.70407 7.30944 3.74142C7.2376 3.77878 7.19306 3.76441 7.17582 3.69832C7.18157 3.37074 7.13559 3.11212 7.03789 2.92247C6.94019 2.73282 6.81089 2.63512 6.64997 2.62937C6.4948 2.62362 6.37555 2.70264 6.29221 2.86644C6.20888 3.03023 6.16147 3.2012 6.14998 3.37936C6.14423 3.46556 6.15429 3.57189 6.18015 3.69832C6.20601 3.82476 6.24337 3.93251 6.29221 4.02159C6.34106 4.11067 6.3856 4.14946 6.42583 4.13797C6.4833 4.12073 6.52928 4.0805 6.56376 4.01728C6.58675 3.96556 6.56664 3.94257 6.50342 3.94832C6.46319 3.94832 6.41865 3.90665 6.3698 3.82332C6.32095 3.73999 6.29365 3.64372 6.2879 3.53453C6.28216 3.40809 6.30802 3.30177 6.36549 3.21557C6.42296 3.12936 6.52066 3.08913 6.65859 3.09488C6.75629 3.09488 6.83387 3.15522 6.89135 3.27591C6.94882 3.3966 6.97611 3.50867 6.97324 3.61211C6.97037 3.71556 6.96606 3.77878 6.96031 3.80177C6.83387 3.88797 6.7448 3.9713 6.69307 4.05176C6.6471 4.12073 6.56807 4.18825 6.45601 4.25435C6.34394 4.32044 6.28503 4.35636 6.27928 4.3621C6.20457 4.44256 6.16003 4.52015 6.14567 4.59486C6.1313 4.66957 6.15285 4.72129 6.21032 4.75003C6.29078 4.796 6.36262 4.85204 6.42583 4.91813C6.48905 4.98422 6.53503 5.03882 6.56376 5.08192C6.5925 5.12502 6.64566 5.16238 6.72324 5.19399C6.80083 5.2256 6.90284 5.24427 7.02927 5.25002C7.29938 5.26151 7.59248 5.21841 7.90857 5.12071C7.92006 5.11496 7.98615 5.09485 8.10684 5.06037C8.22753 5.02589 8.32667 4.99571 8.40425 4.96985C8.48184 4.94399 8.56661 4.90663 8.65856 4.85779C8.75051 4.80894 8.81085 4.75865 8.83959 4.70693C8.89131 4.62647 8.94878 4.60348 9.012 4.63796C9.04074 4.6552 9.05941 4.67963 9.06804 4.71124C9.07666 4.74284 9.06804 4.77733 9.04217 4.81468C9.01631 4.85204 8.9689 4.87934 8.89993 4.89658C8.78499 4.93106 8.62264 4.99284 8.41287 5.08192C8.20311 5.171 8.07236 5.22703 8.02064 5.25002C7.76777 5.35921 7.56662 5.4253 7.4172 5.44829C7.27352 5.47703 7.04651 5.47128 6.73617 5.43105C6.6787 5.41956 6.65284 5.42531 6.65859 5.44829C6.66434 5.47128 6.71318 5.52588 6.80514 5.61208C6.94881 5.74427 7.14134 5.80748 7.38272 5.80174C7.48041 5.79599 7.58386 5.77587 7.69306 5.74139C7.80225 5.70691 7.90569 5.66668 8.00339 5.6207C8.10109 5.57473 8.19736 5.52444 8.29218 5.46984C8.38701 5.41525 8.47322 5.3664 8.5508 5.3233C8.62839 5.28019 8.69879 5.24571 8.76201 5.21985C8.82522 5.19399 8.87551 5.1868 8.91287 5.1983C8.95022 5.20979 8.97465 5.2414 8.98614 5.29312C8.98614 5.30462 8.98327 5.31755 8.97752 5.33192C8.97177 5.34628 8.96028 5.36065 8.94304 5.37502C8.9258 5.38939 8.90856 5.40232 8.89131 5.41381C8.87407 5.42531 8.84965 5.43967 8.81804 5.45691C8.78643 5.47415 8.76057 5.48709 8.74045 5.49571C8.72034 5.50433 8.6916 5.51869 8.65425 5.53881C8.61689 5.55892 8.58959 5.57185 8.57235 5.5776C8.41144 5.65806 8.21747 5.7845 7.99047 5.95691C7.76346 6.12932 7.57237 6.25288 7.4172 6.32759C7.26203 6.4023 7.12123 6.40518 6.99479 6.33621C6.8741 6.27299 6.69307 6.06323 6.4517 5.70691C6.32526 5.52875 6.25342 5.46553 6.23618 5.51726C6.23043 5.5345 6.22756 5.56323 6.22756 5.60346C6.22756 5.74714 6.18446 5.90949 6.09825 6.09053C6.01205 6.27156 5.92728 6.43104 5.84395 6.56897C5.76061 6.7069 5.70027 6.87356 5.66291 7.06896C5.62556 7.26436 5.6586 7.44539 5.76205 7.61206C5.62987 7.64654 5.45027 7.90515 5.22327 8.38791C4.99626 8.87066 4.85977 9.27582 4.81379 9.6034C4.80229 9.70685 4.79798 9.90513 4.80086 10.1982C4.80373 10.4913 4.78793 10.6609 4.75344 10.7068C4.70747 10.8448 4.62414 10.8534 4.50345 10.7327C4.31954 10.5545 4.2161 10.2844 4.19311 9.92237C4.18161 9.76145 4.19311 9.60053 4.22759 9.43962C4.25058 9.33042 4.24771 9.2787 4.21897 9.28444L4.18449 9.32755C3.97759 9.70111 4.00633 10.1781 4.27069 10.7586C4.29943 10.8275 4.37127 10.908 4.48621 10.9999C4.60115 11.0919 4.67011 11.1494 4.6931 11.1723C4.80804 11.3045 5.10689 11.5646 5.58964 11.9525C6.07239 12.3404 6.33963 12.5603 6.39135 12.612C6.48331 12.6982 6.53359 12.8074 6.54221 12.9396C6.55083 13.0717 6.5106 13.1953 6.42153 13.3102C6.33245 13.4252 6.2017 13.4913 6.02929 13.5085C6.07527 13.5947 6.1586 13.7226 6.27929 13.8921C6.39997 14.0617 6.48043 14.2168 6.52066 14.3576C6.56089 14.4984 6.58101 14.701 6.58101 14.9654C6.84537 14.8275 6.86548 14.5631 6.64135 14.1723C6.61836 14.1263 6.58819 14.0804 6.55083 14.0344C6.51348 13.9884 6.48618 13.9539 6.46894 13.9309C6.4517 13.9079 6.44595 13.8907 6.4517 13.8792C6.46894 13.8505 6.50629 13.8232 6.56376 13.7973C6.62123 13.7714 6.6787 13.7786 6.73618 13.8189C7.00054 14.1177 7.47754 14.2212 8.16719 14.1292C8.93155 14.043 9.44016 13.793 9.69303 13.3792C9.82521 13.1608 9.92291 13.0746 9.98613 13.1206C10.0551 13.1551 10.0838 13.3045 10.0723 13.5689C10.0666 13.7125 10.0005 13.9769 9.87406 14.362C9.82234 14.4941 9.8051 14.6019 9.82234 14.6852C9.83958 14.7686 9.90854 14.8131 10.0292 14.8188C10.0465 14.7097 10.0881 14.4884 10.1542 14.1551C10.2203 13.8217 10.2591 13.5631 10.2706 13.3792C10.2821 13.2585 10.2634 13.0473 10.2146 12.7456C10.1657 12.4439 10.1442 12.1651 10.1499 11.9094C10.1557 11.6537 10.2218 11.4511 10.3482 11.3017C10.4344 11.1982 10.5809 11.1465 10.7878 11.1465C10.7936 10.9338 10.8927 10.7815 11.0853 10.6896C11.2778 10.5976 11.4861 10.5675 11.7102 10.5991C11.9344 10.6307 12.1068 10.6953 12.2275 10.793L12.1887 10.7155ZM6.77497 3.58626C6.79221 3.48856 6.78503 3.40235 6.75342 3.32764C6.72181 3.25293 6.68876 3.20983 6.65428 3.19833C6.60256 3.18684 6.5767 3.20695 6.5767 3.25867C6.58819 3.28741 6.60256 3.30465 6.6198 3.3104C6.67727 3.3104 6.69738 3.3535 6.68014 3.43971C6.6629 3.55465 6.68589 3.61212 6.74911 3.61212C6.76635 3.61212 6.77497 3.6035 6.77497 3.58626ZM10.387 5.2845C10.3755 5.23852 10.3568 5.20548 10.331 5.18536C10.3051 5.16525 10.2677 5.15088 10.2189 5.14226C10.17 5.13364 10.1284 5.11784 10.0939 5.09485C10.0652 5.07761 10.0379 5.05462 10.012 5.02588C9.98614 4.99715 9.96602 4.97416 9.95165 4.95692C9.93729 4.93968 9.92148 4.921 9.90424 4.90089C9.887 4.88077 9.87551 4.86928 9.86976 4.8664C9.86401 4.86353 9.85252 4.86784 9.83528 4.87933C9.75482 4.97129 9.77493 5.09629 9.89562 5.25433C10.0163 5.41237 10.1284 5.50289 10.2318 5.52588C10.2835 5.53162 10.3252 5.50864 10.3568 5.45691C10.3884 5.40519 10.3985 5.34772 10.387 5.2845ZM8.85254 3.44833C8.85254 3.38511 8.83817 3.32907 8.80943 3.28022C8.7807 3.23137 8.74909 3.19546 8.71461 3.17247C8.68013 3.14948 8.65426 3.14086 8.63702 3.14661C8.55656 3.15235 8.53645 3.17247 8.57668 3.20695L8.61116 3.22419C8.69162 3.24718 8.74334 3.33626 8.76633 3.49143C8.76633 3.50867 8.78932 3.50292 8.83529 3.47419L8.85254 3.44833ZM9.31805 1.43973C9.31805 1.42824 9.31086 1.41387 9.29649 1.39663C9.28213 1.37939 9.25627 1.35927 9.21891 1.33629C9.18155 1.3133 9.15425 1.29606 9.13701 1.28456C9.05081 1.19836 8.98184 1.15525 8.93012 1.15525C8.8784 1.161 8.84535 1.18255 8.83098 1.21991C8.81662 1.25726 8.81374 1.29462 8.82236 1.33198C8.83098 1.36933 8.84535 1.40525 8.86547 1.43973C8.85972 1.46272 8.84248 1.49289 8.81374 1.53025C8.78501 1.5676 8.76777 1.59347 8.76202 1.60783C8.75627 1.6222 8.76489 1.64663 8.78788 1.68111C8.81087 1.69835 8.83386 1.69835 8.85685 1.68111C8.87983 1.66387 8.91144 1.63801 8.95167 1.60352C8.9919 1.56904 9.035 1.54318 9.08098 1.52594C9.08673 1.52019 9.11259 1.51732 9.15857 1.51732C9.20454 1.51732 9.24764 1.51157 9.28787 1.50008C9.3281 1.48858 9.35396 1.46847 9.36546 1.43973L9.31805 1.43973ZM14.1887 12.9999C14.3036 13.0689 14.3927 13.1393 14.4559 13.2111C14.5191 13.283 14.5536 13.3519 14.5593 13.418C14.5651 13.4841 14.5579 13.5488 14.5378 13.612C14.5177 13.6752 14.4731 13.7384 14.4042 13.8016C14.3352 13.8648 14.2677 13.9209 14.2016 13.9697C14.1355 14.0186 14.0493 14.0717 13.943 14.1292C13.8367 14.1867 13.7461 14.2341 13.6714 14.2714C13.5967 14.3088 13.5048 14.3533 13.3956 14.4051C13.2864 14.4568 13.2088 14.4941 13.1628 14.5171C12.9444 14.6263 12.6987 14.7872 12.4258 14.9999C12.1528 15.2125 11.9358 15.3964 11.7749 15.5516C11.6772 15.6435 11.4818 15.6996 11.1887 15.7197C10.8956 15.7398 10.6399 15.6981 10.4215 15.5947C10.318 15.543 10.2333 15.4754 10.1672 15.3921C10.1011 15.3088 10.0537 15.2355 10.0249 15.1723C9.9962 15.1091 9.93298 15.053 9.83528 15.0042C9.73758 14.9553 9.60252 14.928 9.43011 14.9223C9.17724 14.9165 8.80369 14.9137 8.30944 14.9137C8.20025 14.9137 8.03646 14.918 7.81807 14.9266C7.59968 14.9352 7.43302 14.9424 7.31808 14.9482C7.06521 14.9539 6.83676 14.997 6.63274 15.0775C6.42872 15.1579 6.27499 15.2441 6.17154 15.3361C6.06809 15.428 5.9431 15.5099 5.79655 15.5818C5.65 15.6536 5.49626 15.6867 5.33535 15.6809C5.16868 15.6752 4.84972 15.5861 4.37846 15.4137C3.90721 15.2413 3.48767 15.1177 3.11986 15.043C3.01067 15.02 2.86412 14.9927 2.68021 14.9611C2.49631 14.9295 2.35263 14.9036 2.24919 14.8835C2.14574 14.8634 2.03223 14.8361 1.90867 14.8016C1.78511 14.7671 1.68885 14.7255 1.61988 14.6766C1.55092 14.6278 1.50207 14.5717 1.47333 14.5085C1.41586 14.3763 1.43598 14.1852 1.53368 13.9352C1.63138 13.6852 1.6831 13.5286 1.68885 13.4654C1.6946 13.3735 1.6831 13.2585 1.65437 13.1206C1.62563 12.9827 1.5969 12.8605 1.56816 12.7542C1.53943 12.6479 1.52649 12.543 1.52937 12.4396C1.53224 12.3361 1.56241 12.2585 1.61988 12.2068C1.70034 12.1379 1.86413 12.0976 2.11126 12.0861C2.35838 12.0746 2.53079 12.0402 2.62849 11.9827C2.8009 11.8792 2.92159 11.7787 2.99055 11.681C3.05952 11.5833 3.094 11.4367 3.094 11.2413C3.21469 11.6608 3.12273 11.9654 2.81814 12.1551C2.63424 12.27 2.39573 12.3131 2.10263 12.2844C1.90723 12.2672 1.78367 12.2959 1.73195 12.3706C1.65724 12.4568 1.67161 12.6206 1.77505 12.862C1.78655 12.8965 1.80954 12.9482 1.84402 13.0171C1.8785 13.0861 1.90292 13.1378 1.91729 13.1723C1.93166 13.2068 1.94459 13.2557 1.95608 13.3189C1.96758 13.3821 1.97045 13.4453 1.96471 13.5085C1.96471 13.5947 1.91586 13.7355 1.81816 13.9309C1.72046 14.1263 1.68023 14.2643 1.69747 14.3447C1.71471 14.4424 1.82103 14.5171 2.01643 14.5689C2.13137 14.6033 2.37418 14.6565 2.74487 14.7283C3.11555 14.8002 3.40147 14.8591 3.60261 14.9051C3.74054 14.9395 3.95318 15.0028 4.24053 15.0947C4.52789 15.1867 4.76495 15.2527 4.95173 15.293C5.13851 15.3332 5.29799 15.3447 5.43017 15.3275C5.6773 15.293 5.86264 15.2125 5.9862 15.0861C6.10976 14.9596 6.17585 14.8217 6.18447 14.6723C6.19309 14.5229 6.17154 14.3548 6.11982 14.168C6.06809 13.9812 6.0135 13.8318 5.95603 13.7197C5.89856 13.6077 5.84109 13.5028 5.78362 13.4051C5.08822 12.3131 4.6026 11.6177 4.32674 11.3189C3.93594 10.8936 3.61123 10.7787 3.35262 10.9741C3.2894 11.0258 3.2463 10.9827 3.22331 10.8448C3.20607 10.7528 3.20032 10.6436 3.20607 10.5172C3.21181 10.3505 3.24055 10.2011 3.29227 10.0689C3.344 9.93673 3.41296 9.80167 3.49917 9.66375C3.58537 9.52582 3.64859 9.40513 3.68882 9.30168C3.7348 9.18099 3.81094 8.9741 3.91726 8.681C4.02358 8.3879 4.10835 8.16377 4.17157 8.0086C4.23479 7.85343 4.32099 7.67814 4.43019 7.48274C4.53938 7.28734 4.65145 7.13217 4.76639 7.01723C5.39856 6.19541 5.75488 5.63507 5.83534 5.33622C5.76637 4.69255 5.7204 3.80176 5.69741 2.66384C5.68592 2.14661 5.75488 1.71127 5.9043 1.35783C6.05373 1.00438 6.35832 0.704102 6.81808 0.456979C7.04222 0.336291 7.34106 0.275947 7.71462 0.275947C8.01921 0.2702 8.32381 0.308992 8.6284 0.392324C8.93299 0.475657 9.18874 0.594908 9.39563 0.750078C9.72321 0.991454 9.98614 1.34059 10.1844 1.79748C10.3827 2.25437 10.4675 2.67821 10.4387 3.06901C10.41 3.61498 10.4962 4.22991 10.6973 4.91381C10.8927 5.56323 11.2749 6.18966 11.8439 6.79309C12.16 7.13216 12.4459 7.60055 12.7016 8.19824C12.9574 8.79593 13.1283 9.34478 13.2145 9.84477C13.2605 10.1264 13.2749 10.3692 13.2576 10.5732C13.2404 10.7772 13.2059 10.9367 13.1542 11.0517C13.1025 11.1666 13.045 11.2298 12.9818 11.2413C12.9243 11.2528 12.8568 11.3074 12.7792 11.4051C12.7016 11.5028 12.624 11.6048 12.5464 11.7111C12.4689 11.8174 12.3525 11.9137 12.1973 11.9999C12.0421 12.0861 11.8669 12.1263 11.6715 12.1206C11.568 12.1149 11.4775 12.1005 11.3999 12.0775C11.3223 12.0545 11.2577 12.0157 11.2059 11.9611C11.1542 11.9065 11.1154 11.862 11.0896 11.8275C11.0637 11.793 11.0307 11.7341 10.9904 11.6508C10.9502 11.5674 10.9243 11.5114 10.9128 11.4827C10.7864 11.27 10.6686 11.1838 10.5594 11.2241C10.4502 11.2643 10.3698 11.4051 10.318 11.6465C10.2663 11.8878 10.2864 12.1666 10.3784 12.4827C10.4933 12.885 10.4962 13.4453 10.387 14.1637C10.3295 14.5372 10.3812 14.826 10.5422 15.03C10.7031 15.2341 10.9128 15.3289 11.1715 15.3145C11.4301 15.3002 11.6743 15.1981 11.9042 15.0085C12.2433 14.7269 12.5005 14.5358 12.6758 14.4352C12.851 14.3347 13.1484 14.2125 13.568 14.0689C13.8726 13.9654 14.0938 13.8605 14.2318 13.7542C14.3697 13.6479 14.4229 13.5487 14.3912 13.4568C14.3596 13.3648 14.2878 13.2829 14.1757 13.2111C14.0637 13.1393 13.9157 13.0717 13.7318 13.0085C13.5421 12.9453 13.3999 12.8074 13.3051 12.5947C13.2102 12.3821 13.1671 12.1738 13.1757 11.9697C13.1844 11.7657 13.2289 11.6292 13.3094 11.5603C13.3151 11.7384 13.3381 11.9008 13.3783 12.0473C13.4186 12.1939 13.4602 12.3103 13.5033 12.3965C13.5464 12.4827 13.6053 12.5646 13.68 12.6421C13.7548 12.7197 13.8151 12.7743 13.8611 12.8059C13.9071 12.8375 13.9688 12.8749 14.0464 12.918C14.124 12.9611 14.1714 12.9884 14.1887 12.9999Z" fill="#F5F5F5"/>
</svg>
