<svg width="16" height="16" viewBox="0 0 16 16" fill="none" xmlns="http://www.w3.org/2000/svg">
<path d="M14.5 11.7244C14.476 11.7883 14.1646 12.8823 13.398 14.0002C12.7273 14.9744 12.0405 15.9486 10.9546 15.9646C9.88453 15.9806 9.54117 15.3258 8.31942 15.3258C7.09768 15.3258 6.71439 15.9486 5.70026 15.9806C4.6542 16.0205 3.84769 14.9185 3.17693 13.9523C1.81145 11.9879 0.7574 8.35466 2.17079 5.92715C2.8655 4.71339 4.11919 3.93882 5.47668 3.91486C6.49879 3.89889 7.48097 4.60958 8.10382 4.60958C8.74264 4.60958 9.92446 3.74717 11.1702 3.87494C11.6892 3.89889 13.1505 4.09054 14.0848 5.45602C14.0129 5.50393 12.344 6.4941 12.36 8.49839C12.3759 10.9179 14.476 11.7164 14.5 11.7244ZM10.3477 2.58133C10.9066 1.8946 11.2819 0.95234 11.1781 0.0180664C10.3796 0.0500074 9.39743 0.553078 8.82249 1.23182C8.31144 1.82273 7.85628 2.78096 7.98404 3.70725C8.87041 3.75516 9.78871 3.23612 10.3477 2.58133Z" fill="#F5F5F5"/>
</svg>
