<svg width="16" height="16" viewBox="0 0 16 16" fill="none" xmlns="http://www.w3.org/2000/svg">
<path fill-rule="evenodd" clip-rule="evenodd" d="M8 14.2857C11.4715 14.2857 14.2857 11.4715 14.2857 8C14.2857 4.5285 11.4715 1.71429 8 1.71429C4.5285 1.71429 1.71429 4.5285 1.71429 8C1.71429 11.4715 4.5285 14.2857 8 14.2857ZM16 8C16 12.4183 12.4183 16 8 16C3.58172 16 0 12.4183 0 8C0 3.58172 3.58172 0 8 0C12.4183 0 16 3.58172 16 8ZM8 7.63058C8.47339 7.63058 8.85714 8.01434 8.85714 8.48772V11.6877C8.85714 12.1611 8.47339 12.5449 8 12.5449C7.52661 12.5449 7.14286 12.1611 7.14286 11.6877V8.48772C7.14286 8.01434 7.52661 7.63058 8 7.63058ZM8 4.06529C7.52661 4.06529 7.14286 4.44905 7.14286 4.92243C7.14286 5.39582 7.52661 5.77958 8 5.77958H8.008C8.48139 5.77958 8.86514 5.39582 8.86514 4.92243C8.86514 4.44905 8.48139 4.06529 8.008 4.06529H8Z" fill="#F5F5F5"/>
</svg>
